<svg width="724" height="709" viewBox="0 0 724 709" fill="none" xmlns="http://www.w3.org/2000/svg">
<path fill-rule="evenodd" clip-rule="evenodd" d="M342.5 1.33999C340.85 2.10299 338.763 3.57599 337.862 4.61299C334.804 8.13499 331.135 16.48 330.438 21.5C329.294 29.744 327.302 38.254 325.523 42.5C322.888 48.793 319.694 55.453 319.049 56C318.724 56.275 317.888 57.625 317.19 59C316.492 60.375 315.361 62.4 314.678 63.5C312.043 67.74 302.981 81.549 302.21 82.5C301.764 83.05 301.063 84.175 300.652 85C300.241 85.825 298.826 88.3 297.508 90.5C296.19 92.7 294.077 96.637 292.812 99.25C291.547 101.863 289.998 104 289.371 104C288.743 104 287.424 102.762 286.439 101.25C283.3 96.431 272.761 87.03 264.498 81.681C251.772 73.441 249.04 71.982 238 67.531C234.425 66.09 230.6 64.516 229.5 64.035C228.4 63.553 224.35 62.151 220.5 60.92C216.65 59.688 212.6 58.287 211.5 57.807C204.779 54.871 187.659 51.707 181.956 52.347C170.142 53.673 165.329 62.96 169.635 76.122C170.928 80.077 171.155 83.561 170.72 92.81C170.418 99.24 169.706 105.85 169.138 107.5C165.758 117.315 156.99 146.597 155.619 152.643C154.729 156.572 154 163.032 154 167C154 173.485 153.823 174.139 152.25 173.475C147.842 171.612 128.494 169.017 118.958 169.009C101.946 168.995 77.218 172.656 63.5 177.22C46.394 182.911 33.292 192.488 31.009 200.967C29.523 206.486 30.552 214.039 33.357 218.202C34.552 219.975 37.475 222.792 39.852 224.463C43.857 227.277 44.809 227.5 52.795 227.5H61.415L65.203 232.5C67.286 235.25 68.992 238.063 68.995 238.75C68.998 239.438 69.34 240 69.756 240C70.885 240 76.88 253.562 84.565 273.5C86.049 277.35 88.8 283.996 90.679 288.269C92.557 292.542 93.822 296.48 93.488 297.019C93.155 297.559 91.413 298 89.617 298C84.518 298 69.212 302.911 59 307.824C47.285 313.459 30.908 327.405 18.96 341.918C16.507 344.897 13.434 348.497 12.132 349.918C0.0259962 363.118 -2.38002 370.264 2.48599 378.566C5.50599 383.719 11.613 387 18.185 387C25.111 387 37.65 391.381 43.634 395.891C44.808 396.776 46.804 398.175 48.07 399C52.009 401.567 58.812 407.783 77.5 425.89C83 431.219 89.638 437.1 92.25 438.959C94.863 440.818 97 442.449 97 442.584C97 442.718 95.416 444.46 93.479 446.453C77.608 462.797 66.498 482.629 56.695 512.12C53.7 521.129 50.941 531.049 50.564 534.165C49.772 540.701 51.125 546.898 53.891 549.402C56.527 551.787 68.109 552.706 111.793 553.996C131.754 554.585 149.417 555.333 151.043 555.659C154.39 556.328 155.006 559.119 152.572 562.594C151.786 563.716 150.14 568.653 148.914 573.567C146.953 581.427 146.686 585.081 146.694 604C146.702 622.333 147.029 627.047 148.916 636C153.831 659.329 159.222 670.163 169.387 677.144C173.68 680.092 175.023 680.491 180.429 680.43C186.842 680.357 191.734 678.399 195.245 674.5C198.691 670.672 201 665.092 201 660.591C201 656.817 201.518 655.616 204.25 653.055C206.038 651.38 207.805 650.007 208.179 650.005C208.552 650.002 209.525 649.332 210.341 648.517C211.805 647.052 225.2 640 226.518 640C226.892 640 228.616 639.345 230.349 638.545C233.739 636.979 238.202 635.367 250 631.446C254.125 630.075 258.918 628.289 260.651 627.477C262.384 626.665 264.341 626 265 626C266.162 626 268.884 624.918 277.777 620.922C280.129 619.865 282.216 619 282.415 619C282.615 619 283.087 620.687 283.464 622.75C285.741 635.178 291.643 648.278 302.238 664.423C309.259 675.122 335.748 701.728 343.249 705.615C350.403 709.322 359.667 709.595 363.28 706.205C366.422 703.256 369 695.241 369 688.422C369 683.064 371.109 676.3 375.289 668.25C376.503 665.913 377.835 664 378.248 664C378.662 664 379 663.347 379 662.55C379 661.752 379.579 660.74 380.286 660.3C380.993 659.86 382.607 658.15 383.872 656.5C385.136 654.85 390.745 648.769 396.336 642.988C401.926 637.206 408.844 629.888 411.71 626.726L416.92 620.976L420.82 626.238C428.977 637.241 442.205 647.604 457.588 655.043C463.227 657.769 468.371 660 469.019 660C469.667 660 471.616 660.659 473.349 661.465C475.082 662.271 478.3 663.368 480.5 663.904C482.7 664.44 486.3 665.325 488.5 665.869C496.174 667.769 510.567 669.952 519.673 670.597C528.566 671.226 528.922 671.169 531.382 668.709C534.894 665.197 535.624 661.531 533.64 657.372C531.86 653.638 529.44 652.377 521 650.786C514.071 649.479 506.582 647.447 497 644.272C485.875 640.586 468 632.253 468 630.752C468 630.338 467.52 630 466.933 630C466.02 630 463.576 628.369 457.19 623.5C450.112 618.102 437 601.81 437 598.412C437 597.804 436.242 595.788 435.316 593.931C433.267 589.824 432.315 571.474 433.841 565.5C436.604 554.678 442.351 544.178 448.764 538.233C454.687 532.742 460.4 530.632 469.532 530.562C478.309 530.494 482.3 531.776 491.776 537.706C497.969 541.582 506.265 549.697 510.5 556.02C514.669 562.245 515.05 562.738 519.024 567.041C526.113 574.717 538.526 574.69 547.285 566.98C549.729 564.829 552.298 561.694 552.994 560.013C554.111 557.317 554.626 557.021 557.38 557.495C574.235 560.397 583.865 560.606 603 558.484C628.035 555.708 647.078 550.059 654.847 543.102C660.988 537.604 661.148 535.09 655.934 526C655.145 524.625 654.242 523.275 653.927 523C652.16 521.458 635.812 485.916 630.239 471.5C627.219 463.69 615.02 439.62 613.116 437.716C611.141 435.741 611.882 435.297 618.25 434.64C627.872 433.646 645.996 429.026 651.816 426.083C652.742 425.614 657.042 423.515 661.372 421.417C669.433 417.51 681.822 409.569 687.919 404.399C694.192 399.081 713.633 379.555 716.841 375.352C721.229 369.603 723.952 363.214 723.978 358.609C723.997 355.315 723.329 354.066 719.625 350.466C717.083 347.995 713.836 345.918 711.875 345.508C701.839 343.409 689.443 338.534 681.5 333.563C674.147 328.96 664.939 322.803 663.763 321.703C663.056 321.041 659.558 318.259 655.989 315.519C652.42 312.78 649.05 310.167 648.5 309.713C647.44 308.838 633.837 298.95 630.563 296.675C628.722 295.395 628.934 294.963 634.869 287.915C641.814 279.667 647.387 270.546 651.007 261.5C652.328 258.2 653.696 255.05 654.047 254.5C654.932 253.111 658.55 240.815 660.373 233C662.403 224.294 664.302 201.993 663.854 192.115C663.466 183.572 662.123 180.674 656.663 176.598C652.771 173.692 644.128 173.79 640.076 176.786C638.429 178.004 636.613 179 636.04 179C635.468 179 635 179.36 635 179.801C635 180.742 627.6 184.447 621.08 186.772C618.467 187.704 613.28 188.425 609 188.452C601.229 188.502 600.667 188.364 576 180.344C563.317 176.22 554.87 174.399 545.5 173.769C540.992 173.466 541.024 173.614 543.521 164.5C546.315 154.306 548.882 136.92 548.942 127.79C549.031 114.437 545.112 92.377 541.074 83.5C538.885 78.686 538.306 75.407 539.22 72.995C540.917 68.515 539.651 59.582 536.683 55.097C530.83 46.253 518.497 42.454 510.006 46.88C504.982 49.499 503.526 50.885 497.984 58.326C495.597 61.531 490.912 66.07 487.572 68.414C479.512 74.071 463.054 81.951 456.116 83.475C454.415 83.848 452.766 84.569 452.452 85.077C452.139 85.585 451.121 86.015 450.191 86.034C449.261 86.053 446.7 86.937 444.5 88C442.3 89.063 439.894 89.947 439.154 89.966C438.414 89.985 436.614 90.619 435.154 91.376C428.254 94.953 422.94 97.081 422.142 96.588C421.659 96.289 420.956 93.728 420.581 90.897C417.265 65.901 394.068 28.282 370 8.87099C360.553 1.25099 349.337 -1.82001 342.5 1.33999ZM376.936 70.951C389.668 83.655 394.358 91.168 397.46 103.833C401.188 119.053 394.746 141.07 383.831 150.413C377.906 155.484 373.333 157.616 364.141 159.591C356.543 161.224 355.566 161.227 347.541 159.65C337.728 157.722 332.991 155.505 326.522 149.811C320.051 144.115 317.644 139.027 317.622 131C317.6 123.07 317.37 123.474 333.237 103.5C333.674 102.95 335.079 101.315 336.36 99.867C342.801 92.582 355.252 75.566 359.479 68.27L364.247 60.04L367.309 62.22C368.994 63.42 373.326 67.348 376.936 70.951ZM217 85.167C220.575 86.286 224.4 87.587 225.5 88.056C226.6 88.526 230.32 90.065 233.768 91.475C250.949 98.506 266.97 112.086 273.219 124.915C276.17 130.974 276.429 132.307 276.463 141.599C276.484 147.426 276 152.713 275.318 154.099C274.667 155.419 273.333 158.3 272.352 160.5C270.413 164.848 256.796 179 254.551 179C253.789 179 253.017 179.373 252.833 179.83C252.349 181.037 242.379 185.538 236.068 187.398C228.038 189.766 215.506 189.508 208.509 186.831C200.651 183.824 191.393 174.854 190.535 169.416C190.194 167.262 189.718 164.245 189.475 162.71C188.945 159.357 191.859 135.919 192.982 134.5C193.418 133.95 194.081 131.475 194.456 129C194.831 126.525 195.74 122.475 196.477 120C199.323 110.434 201.288 93.52 200.253 87.508L199.27 81.803L204.885 82.467C207.973 82.832 213.425 84.047 217 85.167ZM517.139 102.75C522.473 116.221 524.044 142.541 520.287 155.5C515.304 172.685 503.277 187.764 489.613 193.959C486.735 195.264 481.802 196.39 477.613 196.699C470.513 197.222 459.115 195.743 458.058 194.162C457.751 193.703 455.25 192.059 452.5 190.508C440.183 183.565 432.241 171.087 428.489 152.785C426.772 144.413 426.773 143.88 428.491 139.285C429.476 136.653 430.727 133.932 431.273 133.238C433.279 130.685 446.122 126.013 477.5 116.419C484.1 114.401 489.928 112.356 490.45 111.875C490.973 111.394 492.063 111 492.874 111C494.862 111 510.702 103.064 512.118 101.358C513.907 99.202 515.958 99.77 517.139 102.75ZM553 199.954C554.925 200.453 558.975 201.604 562 202.512C568.762 204.542 580.964 207.762 587 209.11C589.475 209.663 594.2 210.729 597.5 211.479C600.8 212.229 607.868 213.144 613.207 213.512L622.914 214.18L622.307 217.34C620.288 227.852 613.394 244.289 607.585 252.441C600.939 261.77 590.314 271.628 583 275.252C576.163 278.641 567.61 281 562.164 281C556.621 281 543 277.306 543 275.803C543 275.361 542.488 275 541.862 275C540.053 275 530.613 266.898 527.095 262.326C517.7 250.117 516.645 230.951 524.464 214.511C530.013 202.842 541.509 196.978 553 199.954ZM372.5 207.048C375.8 207.618 381.2 208.529 384.5 209.073C396.584 211.064 417.675 216.946 425.499 220.509C427.149 221.26 431.2 222.996 434.5 224.366C437.8 225.736 442.359 227.901 444.632 229.178C451.196 232.866 460.409 238.342 461.5 239.204C462.05 239.639 465.792 242.519 469.815 245.605C491.723 262.409 509.276 286.867 518.275 313.129C524.473 331.218 526.164 341.924 526.152 363C526.139 388.13 523.345 402.109 513.762 425C510.979 431.65 504.974 443.268 503.385 445.079C502.623 445.947 502 446.978 502 447.369C502 448.432 497.687 454.38 496.25 455.3C495.563 455.74 495 456.531 495 457.058C495 459.348 478.65 476.479 469.164 484.127C465.13 487.381 458.83 491.996 455.164 494.384C448.016 499.041 426.363 510 424.31 510C423.627 510 421.59 510.651 419.784 511.446C405.795 517.607 377.002 522.309 353.5 522.271C333.734 522.239 306.962 518.681 298.5 514.962C297.4 514.479 294.606 513.602 292.292 513.015C289.978 512.427 287.845 511.559 287.553 511.086C287.261 510.613 285.442 509.93 283.511 509.568C281.58 509.206 280 508.48 280 507.955C280 507.43 279.434 507 278.742 507C276.244 507 257.016 495.732 256.167 493.77C255.983 493.346 255.464 493 255.013 493C253.286 493 238.288 478.994 231.807 471.329C229.408 468.492 224.675 461.817 221.258 456.45C219.908 454.33 211.261 436.745 209.972 433.5C205.31 421.755 202.201 407.687 200.496 390.616C199.091 376.552 199.087 373.483 200.461 359.736C203.209 332.225 208 315.19 219.51 292C225.283 280.367 226.183 278.859 233.533 268.489C240.249 259.016 257.463 240.656 262.824 237.249C264.296 236.313 265.86 234.975 266.3 234.274C266.74 233.573 267.715 233 268.466 233C269.218 233 269.983 232.654 270.167 232.23C270.822 230.716 281.647 224.196 290 220.284C305.876 212.848 312.476 210.786 332.5 207.006C338.612 205.852 365.74 205.88 372.5 207.048ZM143.5 211.451C150.814 213.981 163.04 220.121 166.498 223C171.331 227.025 178 234.356 178 235.645C178 236.299 178.337 236.983 178.75 237.167C179.163 237.35 180.623 240.2 181.996 243.5C184.116 248.597 184.492 251.08 184.496 260C184.5 269.448 184.233 271.006 181.836 275.547C177.181 284.366 167.871 291.732 156.044 295.953C146.898 299.218 132.981 299.2 127.275 295.916C121.74 292.73 115.369 282.305 105.02 259.5C99.363 247.034 93.787 235.965 91.366 232.397C90.065 230.48 89 228.658 89 228.349C89 228.039 87.2 225.526 85 222.763C82.8 219.999 81 217.416 81 217.021C81 215.744 91.366 211.989 101.5 209.596C102.6 209.336 111.375 209.258 121 209.422C134.39 209.651 139.674 210.127 143.5 211.451ZM337.195 225.59C322.309 233.008 311.023 257.344 311.007 282.06L311 292.621L302.75 289.867C288.597 285.143 276.147 283.937 263.213 286.035C245.422 288.922 233.1 298.54 233.022 309.601C233.01 311.307 234.143 314.851 235.539 317.478C236.936 320.105 237.949 322.334 237.789 322.431C237.63 322.528 235.555 323.453 233.177 324.488C226.276 327.491 225 329.86 225 339.668C225 350.112 227.43 355.486 236.379 364.838C246.317 375.223 258.608 382.635 272.478 386.607C279.141 388.515 280.233 389.732 277.395 392.087C274.687 394.335 267.931 404.877 264.865 411.637C260.922 420.334 258.015 433.018 258.007 441.568C257.989 459.678 267.686 471.353 280.123 468.197C282.464 467.602 284.744 467.342 285.19 467.617C285.635 467.893 286 469.711 286 471.658C286 486.477 303.986 491.815 323.846 482.89C336.439 477.231 349.791 465.618 357.424 453.686C359.425 450.559 361.197 448 361.362 448C361.528 448 363.179 450.363 365.033 453.25C372.609 465.055 386.668 477.254 399.295 482.98C419.072 491.947 437 486.564 437 471.658C437 469.711 437.365 467.893 437.81 467.617C438.256 467.342 440.536 467.602 442.877 468.197C448.786 469.697 453.855 468.01 458.334 463.052C470.952 449.085 464.694 413.749 445.767 392.097L442.792 388.694L450.94 386.342C469.71 380.923 486.798 368.409 494.738 354.267C497.688 349.014 497.977 347.733 497.988 339.885C498.002 329.838 496.768 327.511 489.823 324.488C487.445 323.453 485.37 322.528 485.211 322.431C485.051 322.334 486.1 320.06 487.541 317.377C495.859 301.894 479.673 287.089 452.506 285.332C441.758 284.637 431.614 286.06 420.267 289.856L412 292.621L411.993 282.06C411.977 257.344 400.691 233.008 385.805 225.59C377.356 221.38 370.233 222.554 364.48 229.107L361.49 232.511L358.52 229.11C352.798 222.56 345.645 221.379 337.195 225.59ZM366.765 301.996C369.526 304.568 370.293 308.898 369.854 319.435C369.436 329.482 367.556 332.4 361.5 332.4C355.444 332.4 353.564 329.482 353.146 319.435C352.707 308.898 353.474 304.568 356.235 301.996C358.989 299.43 364.011 299.43 366.765 301.996ZM108 321.388C112.98 322.579 118.113 324.863 123.446 328.26C125.245 329.407 135.175 339.242 137.526 342.207C142.407 348.363 146.767 360.221 147.801 370.151C149.177 383.364 145.988 392.959 137.351 401.596C128.835 410.112 116.76 413.505 111 409C109.625 407.924 108.144 407.034 107.708 407.022C107.272 407.01 106.372 406.546 105.708 405.991C105.044 405.436 102.025 403.101 99 400.802C95.975 398.504 90.353 394.12 86.506 391.061C82.66 388.003 79.06 385.154 78.506 384.731C77.953 384.309 76.375 383.009 75 381.843C66.703 374.809 48.496 364.796 40.899 363.089C38.669 362.588 36.592 361.925 36.283 361.616C34.43 359.763 56.656 337.123 66.717 330.614C80.946 321.41 94.984 318.272 108 321.388ZM615.285 329.013C619.566 331.217 626.689 335.266 631.114 338.011C635.538 340.755 639.347 343 639.577 343C639.807 343 642.188 344.575 644.867 346.5C647.547 348.425 650.1 350 650.541 350C650.982 350 652.053 350.617 652.921 351.37C657.818 355.621 681.49 367 685.435 367C689.012 367 686.46 371.04 677.225 380C662.863 393.934 647.864 403.562 632.246 408.873C623.255 411.931 608.262 411.873 600.335 408.75C593.446 406.036 583.4 396.673 580.217 390C572.025 372.826 571.709 354.066 579.361 339.269C583.452 331.357 593.729 325.025 602.5 325.012C606.383 325.006 609.239 325.899 615.285 329.013ZM352.395 336.598C353.252 336.927 355.6 339.488 357.613 342.29L361.273 347.384L363.657 344.442C370.01 336.601 370.751 336 374.07 336C378.54 336 382 339.347 382 343.672C382 345.897 380.802 348.662 378.376 352.04C376.382 354.815 374.92 357.202 375.126 357.344C375.332 357.487 378.075 358.387 381.223 359.344C387.525 361.261 390 363.817 390 368.408C390 375.078 383.789 377.601 375 374.5C372.662 373.675 370.58 373 370.374 373C370.168 373 370 375.183 370 377.851C370 386.826 367.349 391 361.648 391C355.65 391 353 387.185 353 378.55C353 375.497 352.832 373 352.626 373C352.42 373 350.338 373.675 348 374.5C339.29 377.573 333 375.078 333 368.548C333 363.758 335.442 361.216 341.797 359.392C344.933 358.492 347.668 357.604 347.874 357.42C348.08 357.236 346.618 354.815 344.624 352.04C340.37 346.119 339.912 341.786 343.174 338.314C345.292 336.06 349.131 335.345 352.395 336.598ZM321.33 339.996C326.474 341.644 331.429 343.817 332.342 344.825C336.31 349.21 332.737 358 326.985 358C323.294 358 307.24 352.527 305.009 350.508C301.307 347.158 301.726 341.497 305.913 338.282C308.336 336.422 311.148 336.735 321.33 339.996ZM417.087 338.282C421.43 341.617 421.688 347.156 417.665 350.74C415.325 352.825 399.887 358 396.005 358C390.038 358 386.473 348.597 390.916 344.576C393.128 342.574 409.294 337.08 413 337.07C414.375 337.066 416.214 337.612 417.087 338.282ZM345.927 386.635C347.067 388.084 348 390.267 348 391.486C348 393.768 338.406 408.136 334.803 411.25C331.89 413.768 327.369 413.46 324.455 410.545C320.598 406.689 321.248 403.358 327.603 394.399C334.413 384.799 335.375 384 340.119 384C342.964 384 344.349 384.628 345.927 386.635ZM388.205 385.25C391.865 388.131 401 402.372 401 405.195C401 411.423 392.854 415.275 388.197 411.25C384.594 408.136 375 393.768 375 391.486C375 387.509 378.695 384 382.881 384C384.936 384 387.332 384.563 388.205 385.25ZM569.412 443.434C575.179 446.866 584.54 457.028 591.123 467C594.209 471.675 601.791 485.4 607.973 497.5C614.155 509.6 620.515 521.435 622.106 523.8C623.698 526.165 625 528.425 625 528.821C625 529.734 610.006 533.46 599.5 535.159C588.368 536.959 571.955 536.7 564.152 534.602C556.994 532.677 556.135 532.26 546.771 526.167C528.393 514.21 522.2 504.195 525.006 490.972C525.7 487.7 526.883 484.512 527.634 483.889C528.385 483.265 529 482.19 529 481.499C529 480.809 531.825 477.151 535.278 473.372C538.73 469.592 543.793 463.125 546.528 459C552.351 450.216 561.08 441 563.575 441C564.537 441 567.164 442.095 569.412 443.434ZM148.003 450.891C159.372 454.2 165.274 458.229 173.082 468.012C178.238 474.471 180.651 479.764 181.797 487.122C183.976 501.121 178.234 514.104 167.986 518.349C162.525 520.611 132.954 522.928 104.95 523.288L79.4 523.617L80.74 519.058C81.477 516.551 82.81 512.025 83.703 509C89.262 490.171 101.766 468.177 111.222 460.598C113.025 459.152 114.992 457.575 115.594 457.091C120.045 453.516 132.067 449.219 138.003 449.081C139.93 449.037 144.43 449.851 148.003 450.891ZM245.201 533.088C251.202 534.319 260 537.94 260 539.178C260 539.63 260.662 540 261.472 540C264.211 540 277.418 554.275 280.472 560.537C283.081 565.888 283.386 567.543 283.44 576.664C283.496 586.106 283.326 587.014 281.059 589.432C278.793 591.849 268.787 597.191 263 599.073C258.535 600.526 251.548 603.033 249.5 603.918C248.4 604.394 239.751 607.304 230.28 610.386C214.518 615.515 201.493 621.002 193.322 625.953C189.646 628.181 189.213 627.854 186.655 620.922C182.947 610.871 182.878 588.016 186.524 576.826C190.453 564.767 195.237 556.769 203.496 548.455C216.764 535.098 230.441 530.058 245.201 533.088ZM371.042 570.136C378.815 574.182 384.897 580.106 388.134 586.783C390.67 592.015 390.141 595.977 385.956 603.075C383.167 607.804 365.849 630.378 363.381 632.5C361.17 634.401 351.694 648.442 348.547 654.479C346.811 657.811 344.79 662.678 344.058 665.294C343.325 667.911 342.373 670.27 341.941 670.536C341.163 671.017 334.848 664.722 329.367 658C327.797 656.075 326.025 654.05 325.429 653.5C321.092 649.494 312.228 635.002 309.221 627C305.421 616.886 304.531 610.673 305.965 604.265C306.671 601.11 308.093 596.953 309.125 595.029C310.156 593.104 311 591.034 311 590.428C311 587.65 329.376 572.018 332.669 571.994C333.126 571.99 334.85 571.272 336.5 570.397C341.067 567.974 347.573 567.066 357.542 567.459C364.57 567.736 367.576 568.332 371.042 570.136Z" fill="#D38C8C"/>
</svg>
